<?xml version="1.0" encoding="utf-8"?>
<!-- Generator: Adobe Illustrator 16.0.0, SVG Export Plug-In . SVG Version: 6.00 Build 0)  -->
<!DOCTYPE svg PUBLIC "-//W3C//DTD SVG 1.1//EN" "http://www.w3.org/Graphics/SVG/1.1/DTD/svg11.dtd">
<svg version="1.1" id="Layer_1" xmlns="http://www.w3.org/2000/svg" xmlns:xlink="http://www.w3.org/1999/xlink" x="0px" y="0px"
	 width="218.802px" height="43.921px" viewBox="196.034 373.716 218.802 43.921"
	 enable-background="new 196.034 373.716 218.802 43.921" xml:space="preserve">
<g>
	<path fill="#867e6f" d="M375.436,415.7h-2.907l-0.484,1.292h-1.453l3.392-7.267l0,0l3.391,7.267h-1.453L375.436,415.7z
		 M373.014,414.57h1.938l-0.969-2.1L373.014,414.57z"/>
	<path fill="#867e6f" d="M381.249,414.086v-1.131h3.391v0.646c0,2.099-1.13,3.391-3.229,3.391s-3.553-1.292-3.553-3.553
		s1.453-3.714,3.553-3.714c1.292,0,2.261,0.323,2.906,1.292l-1.13,0.969c-0.484-0.646-0.969-0.969-1.776-0.969
		c-1.131,0-2.1,0.646-2.1,2.422s0.969,2.422,2.1,2.422c1.13,0,1.776-0.646,1.776-1.614h-1.938V414.086z"/>
	<path fill="#867e6f" d="M386.254,409.887h4.845v1.292h-3.391v1.615h2.745v1.13h-2.745v1.776h3.552v1.292h-5.006V409.887
		L386.254,409.887z"/>
	<path fill="#867e6f" d="M394.328,412.794v4.037h-1.453v-7.267l0,0l4.683,4.198v-4.037h1.453v7.267l0,0L394.328,412.794z"/>
	<path fill="#867e6f" d="M404.34,415.7c0.808,0,1.453-0.323,1.776-0.969l0.969,0.808c-0.646,0.969-1.614,1.453-2.906,1.453
		c-2.1,0-3.553-1.292-3.553-3.553s1.453-3.714,3.553-3.714c1.292,0,2.099,0.484,2.745,1.292l-0.969,0.808
		c-0.485-0.646-0.97-0.97-1.776-0.97c-1.131,0-2.1,0.646-2.1,2.423C402.24,415.216,403.21,415.7,404.34,415.7z"/>
	<path fill="#867e6f" d="M412.091,414.57v2.261h-1.453v-2.261l-2.584-4.684h1.615l1.776,3.392l1.775-3.392h1.615L412.091,414.57z"/>
	<path fill="#867e6f" d="M285.977,373.716c-10.819,0-19.861,7.589-21.799,18.085h-3.552h-3.553h-7.912v7.751h7.912h3.714h3.391
		c1.776,10.334,10.98,18.085,21.8,18.085c12.111,0,22.123-9.688,22.123-21.96C308.1,383.405,298.087,373.716,285.977,373.716z
		 M285.977,409.887c-7.912,0-14.048-6.297-14.048-14.209s6.298-14.21,14.048-14.21c7.751,0,14.21,6.298,14.21,14.21
		S293.728,409.887,285.977,409.887z"/>
	<path fill="#867e6f" d="M226.876,392.125c8.881,0,12.757,5.329,12.757,12.434c0,7.428-4.36,12.595-12.918,12.434h-30.681v-42.63
		h40.37v7.751h-32.457v10.173h22.93V392.125z M226.553,409.402c2.906,0,5.167-2.099,5.167-4.683s-1.615-4.845-5.167-4.845h-22.446
		v9.527H226.553z"/>
	<path fill="#867e6f" d="M347.016,374.201c9.365,0,14.048,5.651,14.048,13.726c0,7.751-4.359,13.725-14.048,13.725H324.57v15.341
		h-7.913v-42.792H347.016z M346.692,394.063c4.521,0,6.62-2.745,6.62-6.136s-2.906-5.975-6.459-5.975h-21.799v12.111H346.692z"/>
	<path fill="#867e6f" d="M400.626,374.201h-14.533v7.751h14.21c3.714,0,6.459,2.583,6.459,5.975s-2.099,6.136-6.62,6.136h-14.21
		v7.751h14.694c9.688,0,14.049-5.975,14.049-13.726C414.675,379.852,409.991,374.201,400.626,374.201z"/>
	<path fill="#867e6f" d="M384.64,401.813h14.533v-7.751h-14.21c-3.715,0-6.459-2.584-6.459-5.975c0-3.391,2.099-6.136,6.62-6.136
		h14.21v-7.751H384.64c-9.688,0-14.049,5.975-14.049,13.726C370.43,396.161,375.112,401.813,384.64,401.813z"/>
	<rect x="249.16" y="374.362" fill="#867e6f" width="7.75" height="7.751"/>
	<rect x="249.16" y="409.402" fill="#867e6f" width="7.75" height="7.751"/>
</g>
</svg>
