<?xml version="1.0" encoding="UTF-8"?>
<svg width="15px" height="11px" viewBox="0 0 15 11" version="1.1" xmlns="http://www.w3.org/2000/svg" xmlns:xlink="http://www.w3.org/1999/xlink">
    <path stroke="none" stroke-width="1" transform="translate(-1230.000000, -29.000000)" d="M1244.73666,33.8910825 C1244.61144,33.6931466 1241.62421,29.043663 1237.82397,29.043663 C1234.02416,29.043663 1231.03637,33.6931466 1230.91101,33.8910825 C1230.83124,34.0170823 1230.83124,34.1822523 1230.91101,34.3082522 C1231.03637,34.5061881 1234.02416,39.1553738 1237.82397,39.1553738 C1241.62407,39.1553738 1244.61144,34.5061881 1244.73666,34.3082522 C1244.81643,34.1821034 1244.81643,34.0170823 1244.73666,33.8910825 Z M1237.82384,37.361142 C1236.1398,37.361142 1234.76981,35.8979949 1234.76981,34.0994439 C1234.76981,32.300893 1236.13994,30.8377459 1237.82384,30.8377459 C1239.50787,30.8377459 1240.87786,32.3010419 1240.87786,34.0994439 C1240.878,35.8979949 1239.50787,37.361142 1237.82384,37.361142 Z M1237.82384,32.5132757 C1237.00483,32.5132757 1236.33866,33.2248918 1236.33866,34.0994439 C1236.33866,34.974145 1237.00497,35.6856122 1237.82384,35.6856122 C1238.64284,35.6856122 1239.30901,34.974145 1239.30901,34.0994439 C1239.30915,33.2247429 1238.64284,32.5132757 1237.82384,32.5132757 Z" id="eye"></path>
</svg>