<?xml version="1.0" encoding="UTF-8"?>
<svg width="12px" height="12px" viewBox="0 0 12 12" version="1.1" xmlns="http://www.w3.org/2000/svg" xmlns:xlink="http://www.w3.org/1999/xlink">
    <g id="Symbols">
        <path d="M1157.12071,67.4469454 L1155.17854,65.5048711 C1155.86965,64.6595196 1156.28443,63.57953 1156.28443,62.4026003 C1156.28443,59.6936989 1154.08846,57.4977294 1151.37956,57.4977294 C1148.67066,57.4977294 1146.47478,59.6936989 1146.47478,62.4026003 C1146.47478,65.1112213 1148.67075,67.3072843 1151.37965,67.3072843 C1152.45104,67.3072843 1153.44213,66.9634601 1154.24887,66.3805106 L1156.21796,68.349601 C1156.35725,68.4888881 1156.5831,68.4888881 1156.72239,68.349601 L1157.12062,67.9515575 C1157.26,67.8122704 1157.26,67.5862326 1157.12071,67.4469454 Z M1151.37965,66.0307035 C1149.37579,66.0307035 1147.75136,64.4062788 1147.75136,62.4026003 C1147.75136,60.3987349 1149.37579,58.7743101 1151.37965,58.7743101 C1153.38352,58.7743101 1155.00794,60.3988284 1155.00794,62.4026003 C1155.00785,64.4062788 1153.38342,66.0307035 1151.37965,66.0307035 Z" id="search" transform="translate(-1146.000000, -57.000000)" stroke="none" stroke-width="1"></path>
    </g>
</svg>