<?xml version="1.0" encoding="UTF-8"?>
<svg width="150px" height="18px" viewBox="0 0 150 18" version="1.1" xmlns="http://www.w3.org/2000/svg" xmlns:xlink="http://www.w3.org/1999/xlink">
    <g id="Symbols" stroke="none" stroke-width="1" fill="none" fill-rule="evenodd">
        <g id="Footer" transform="translate(-152.000000, -126.000000)" fill="#2B79BE">
            <g id="Group" transform="translate(152.000000, 126.173000)">
                <path d="M147.84814,0 L135.00304,0 C133.896726,0 133,0.901122249 133,2.01340161 L133,14.9639083 C133,16.0757246 133.896726,16.9773099 135.00304,16.9773099 L147.84814,16.9773099 C148.954454,16.9773099 149.85118,16.0757246 149.85118,14.9639083 L149.85118,2.01340161 C149.85118,0.901122249 148.954454,0 147.84814,0 L147.84814,0 Z M145.112001,2.65242972 C145.112001,2.35977337 145.347788,2.12222162 145.63827,2.12222162 L147.217996,2.12222162 C147.508938,2.12222162 147.744725,2.35977337 147.744725,2.65242972 L147.744725,4.24444323 C147.744725,4.53709959 147.508938,4.77465134 147.217996,4.77465134 L145.63827,4.77465134 C145.347788,4.77465134 145.112001,4.53709959 145.112001,4.24444323 L145.112001,2.65242972 L145.112001,2.65242972 Z M141.445124,5.25114404 C143.234898,5.25114404 144.68593,6.70979516 144.68593,8.50833515 C144.68593,10.3073382 143.234898,11.7655263 141.445124,11.7655263 C139.655809,11.7655263 138.204778,10.3073382 138.204778,8.50833515 C138.204778,6.70979516 139.655809,5.25114404 141.445124,5.25114404 L141.445124,5.25114404 Z M148.271454,14.8550883 C148.271454,15.1477446 148.035667,15.3857594 147.744725,15.3857594 L135.106455,15.3857594 C134.815513,15.3857594 134.579726,15.1477446 134.579726,14.8550883 L134.579726,6.89687296 L136.686181,6.89687296 C136.411786,7.2946448 136.318942,8.03693615 136.318942,8.50833515 C136.318942,11.3492319 138.618898,13.6608466 141.445124,13.6608466 C144.271809,13.6608466 146.571766,11.3492319 146.571766,8.50833515 C146.571766,8.03693615 146.50512,7.3062214 146.164999,6.89687296 L148.271454,6.89687296 L148.271454,14.8550883 L148.271454,14.8550883 Z" id="instagram"></path>
                <path d="M100.873242,16.0613696 C100.873242,16.579538 100.456363,17 99.9420445,17 L95.6422657,17 L95.6422657,10.4166213 L97.8355895,10.4166213 L98.1642204,7.85124755 L95.6422657,7.85124755 L95.6422657,6.21292765 C95.6422657,5.47017324 95.8472578,4.96404445 96.9043921,4.96404445 L98.2529277,4.96358139 L98.2529277,2.66863696 C98.019439,2.63761168 97.2192343,2.56768904 96.2880369,2.56768904 C94.3438291,2.56768904 93.0127591,3.7633199 93.0127591,5.95916866 L93.0127591,7.85124755 L90.8139198,7.85124755 L90.8139198,10.4166213 L93.0127591,10.4166213 L93.0127591,17 L84.9311974,17 C84.4168786,17 84,16.579538 84,16.0613696 L84,0.938630421 C84,0.41999891 84.4168786,0 84.9311974,0 L99.9420445,0 C100.456363,0 100.873242,0.41999891 100.873242,0.938630421 L100.873242,16.0613696" id="facebook"></path>
                <path d="M15.5101484,8.51283813 L20.7052524,13.7089622 L20.7052524,3.31732608 L15.5101484,8.51283813 Z M10.5855717,13.4376188 L6.67373835,9.52496941 L0.584629237,15.6153026 C0.826594104,16.2214389 1.41763307,16.65212 2.10945673,16.65212 L19.0616867,16.65212 C19.7543264,16.65212 20.3445493,16.2214389 20.5865142,15.6153026 L14.497201,9.52619352 L10.5855717,13.4376188 Z M0.465074927,3.31589795 L0.465074927,13.7089622 L5.66099501,8.51202206 L0.465074927,3.31589795 Z M20.6732216,1.32407418 C20.5234727,0.570025158 19.8589874,1.77635684e-15 19.0616867,1.77635684e-15 L2.10945673,1.77635684e-15 C1.31276803,1.77635684e-15 0.647670674,0.570025158 0.49792176,1.32264606 L10.5857757,11.4117241 L20.6732216,1.32407418 Z" id="mail"></path>
                <path d="M50.3910564,14.5610596 C50.3910564,14.5610596 50.7556572,14.5205716 50.9420829,14.3184901 C51.1134297,14.132747 51.1079528,13.7841922 51.1079528,13.7841922 C51.1079528,13.7841922 51.0843384,12.1520613 51.8360875,11.9117132 C52.5774519,11.6748049 53.5292121,13.4890958 54.5379456,14.1867788 C55.3007906,14.7145556 55.8804816,14.5990395 55.8804816,14.5990395 L58.578001,14.5610596 C58.578001,14.5610596 59.9890331,14.4733476 59.3199344,13.355593 C59.2651661,13.264298 58.9301545,12.5287785 57.3142034,11.0176099 C55.6226436,9.43592766 55.8493988,9.69182596 57.8868528,6.95591415 C59.1276762,5.28974466 59.6236499,4.27260088 59.4686625,3.836979 C59.3210014,3.42192357 58.4082903,3.53156356 58.4082903,3.53156356 L55.3711359,3.55048183 C55.3711359,3.55048183 55.1458033,3.51959632 54.9789376,3.62020713 C54.8156994,3.71859648 54.7109283,3.94848215 54.7109283,3.94848215 C54.7109283,3.94848215 54.2300337,5.23771941 53.5891728,6.33433426 C52.23675,8.64795296 51.6958947,8.77042011 51.4748297,8.62652658 C50.960505,8.29165883 51.0890328,7.28153775 51.0890328,6.56371831 C51.0890328,4.32147309 51.4266051,3.38659513 50.4316703,3.1445989 C50.1015665,3.06433956 49.8583808,3.01123941 49.0140234,3.00256854 C47.9302501,2.99146122 47.0132002,3.00593656 46.4938255,3.26226482 C46.1482869,3.43274425 45.8817002,3.8125429 46.0441559,3.83439924 C46.2449495,3.86134344 46.6994558,3.95801295 46.9404365,4.28836611 C47.2517626,4.71510214 47.2408801,5.67305465 47.2408801,5.67305465 C47.2408801,5.67305465 47.4197663,8.31251193 46.823218,8.64028532 C46.4138779,8.86515479 45.8522533,8.40610005 44.6464959,6.30703175 C44.0288227,5.23184328 43.5622958,4.04321683 43.5622958,4.04321683 C43.5622958,4.04321683 43.4724615,3.82114211 43.3119973,3.70225797 C43.1173919,3.55822112 42.8454705,3.51257363 42.8454705,3.51257363 L39.9592493,3.53156356 C39.9592493,3.53156356 39.5260813,3.54374578 39.3668975,3.73357344 C39.2252821,3.90254801 39.3555882,4.25160447 39.3555882,4.25160447 C39.3555882,4.25160447 41.6150318,9.57752806 44.1736387,12.2614863 C46.5199294,14.7225815 49.1837342,14.5610596 49.1837342,14.5610596 L50.3910564,14.5610596 Z" id="vk"></path>
            </g>
        </g>
    </g>
</svg>